<?xml version="1.0" encoding="UTF-8"?>
<svg version="1.1" xmlns="http://www.w3.org/2000/svg" width="512" height="512">
<path d="M0 0 C0.639375 -0.01289063 1.27875 -0.02578125 1.9375 -0.0390625 C5.27044765 1.03404565 6.80083086 2.9451748 9 5.625 C9.56762695 9.13012695 9.56762695 9.13012695 9.48828125 13.11328125 C9.47766914 14.1680793 9.47766914 14.1680793 9.46684265 15.2441864 C9.43899212 17.47640227 9.3762832 19.70605077 9.3125 21.9375 C9.28740451 23.45634381 9.26459352 24.9752272 9.24414062 26.49414062 C9.18920007 30.20525248 9.10299739 33.91487541 9 37.625 C9.57717773 37.67325928 10.15435547 37.72151855 10.74902344 37.77124023 C33.3414435 39.92345567 53.29124311 56.56573388 67.47314453 73.37060547 C75.89050077 83.72304914 82.63600566 94.92734789 89 106.625 C89.34981934 107.25212891 89.69963867 107.87925781 90.06005859 108.52539062 C96.23686501 119.65775708 100.55630085 131.56703968 105.08879089 143.43084717 C113.75769739 166.11654685 123.45839532 188.05175137 134.16368103 209.83049011 C150.87667208 243.87060402 163.13478597 278.04442662 169 315.625 C169.1134375 316.33994629 169.226875 317.05489258 169.34375 317.79150391 C170.42247582 325.79526421 170.24394018 333.93807835 170.25 342 C170.25067474 342.80490875 170.25134949 343.6098175 170.25204468 344.43911743 C170.23612694 356.38590227 169.91217089 367.97631643 167 379.625 C166.82307617 380.33527344 166.64615234 381.04554688 166.46386719 381.77734375 C165.16946716 386.7939822 163.64611264 391.71374405 162 396.625 C161.78504883 397.28032715 161.57009766 397.9356543 161.34863281 398.61083984 C147.6310922 439.83522759 116.81072392 474.91098446 78.18017578 494.54345703 C53.6556109 506.70961856 27.77947941 513.06773247 0.375 512.9375 C-0.42025085 512.93567719 -1.21550171 512.93385437 -2.03485107 512.93197632 C-13.92091659 512.88610321 -25.39959879 512.42718917 -37 509.625 C-37.72670898 509.45871094 -38.45341797 509.29242188 -39.20214844 509.12109375 C-82.13305212 499.09831468 -120.76514161 471.48226709 -144.45361328 434.34619141 C-161.14107502 406.62144756 -170.46015231 375.94905262 -170.375 343.5 C-170.37445618 342.71564575 -170.37391235 341.9312915 -170.37335205 341.12316895 C-170.21987437 292.61685401 -153.186679 247.41232115 -131.5 204.6875 C-120.4771981 182.9430747 -111.33244608 160.56099521 -103.01977539 137.6628418 C-99.33403656 127.59784708 -94.98274839 118.11211065 -90 108.625 C-89.54520264 107.74021973 -89.09040527 106.85543945 -88.62182617 105.94384766 C-80.69785383 90.64546613 -70.89282699 77.1008087 -59 64.625 C-58.46632813 64.02816406 -57.93265625 63.43132813 -57.3828125 62.81640625 C-46.56795222 51.16756421 -29.71049051 40.57598659 -14 37.625 C-12.33341211 37.60879556 -10.66656865 37.60692442 -9 37.625 C-9.02618408 36.68180908 -9.05236816 35.73861816 -9.0793457 34.7668457 C-9.16476922 31.25366855 -9.22734298 27.74160092 -9.2746582 24.2277832 C-9.29974109 22.70970199 -9.3338166 21.19174082 -9.37719727 19.67407227 C-9.43813293 17.48684035 -9.46626895 15.30120961 -9.48828125 13.11328125 C-9.51446533 11.79884033 -9.54064941 10.48439941 -9.56762695 9.13012695 C-8.7376917 4.00523216 -5.53490202 -0.11159077 0 0 Z " fill="#99D04A" transform="translate(256,-0.625)"/>
<path d="M0 0 C29.99230742 18.88116762 46.62287184 52.60349799 54.91796875 86.0390625 C60.02060494 108.52940303 57.62303646 133.25723021 45.68945312 153.17382812 C32.58937791 173.71663901 13.39329428 187.05442776 -10.171875 193.2734375 C-33.49482711 196.92293571 -55.70007461 193.0652647 -75.28515625 179.4453125 C-93.67036448 165.61286896 -107.08747158 146.83614881 -110.671875 123.765625 C-112.20356034 111.78719841 -112.18149937 98.99513243 -109.171875 87.2734375 C-108.86099863 85.89344969 -108.55120579 84.51321757 -108.2421875 83.1328125 C-100.92816283 51.81716895 -83.93232512 19.43566186 -56.484375 1.3984375 C-38.613665 -9.48485003 -18.43032214 -10.03226895 0 0 Z " fill="#B17214" transform="translate(283.171875,238.7265625)"/>
<path d="M0 0 C0.639375 -0.01289063 1.27875 -0.02578125 1.9375 -0.0390625 C5.27044765 1.03404565 6.80083086 2.9451748 9 5.625 C9.56762695 9.13012695 9.56762695 9.13012695 9.48828125 13.11328125 C9.47766914 14.1680793 9.47766914 14.1680793 9.46684265 15.2441864 C9.43899212 17.47640227 9.3762832 19.70605077 9.3125 21.9375 C9.28740451 23.45634381 9.26459352 24.9752272 9.24414062 26.49414062 C9.18920007 30.20525248 9.10299739 33.91487541 9 37.625 C9.57717773 37.67325928 10.15435547 37.72151855 10.74902344 37.77124023 C33.3414435 39.92345567 53.29124311 56.56573388 67.47314453 73.37060547 C75.89050077 83.72304914 82.63600566 94.92734789 89 106.625 C89.34981934 107.25212891 89.69963867 107.87925781 90.06005859 108.52539062 C96.23686501 119.65775708 100.55630085 131.56703968 105.08879089 143.43084717 C113.75769739 166.11654685 123.45839532 188.05175137 134.16368103 209.83049011 C150.87667208 243.87060402 163.13478597 278.04442662 169 315.625 C169.1134375 316.33994629 169.226875 317.05489258 169.34375 317.79150391 C170.42247582 325.79526421 170.24394018 333.93807835 170.25 342 C170.25067474 342.80490875 170.25134949 343.6098175 170.25204468 344.43911743 C170.23612694 356.38590227 169.91217089 367.97631643 167 379.625 C166.82307617 380.33527344 166.64615234 381.04554688 166.46386719 381.77734375 C165.16946716 386.7939822 163.64611264 391.71374405 162 396.625 C161.78504883 397.28032715 161.57009766 397.9356543 161.34863281 398.61083984 C147.6310922 439.83522759 116.81072392 474.91098446 78.18017578 494.54345703 C53.6556109 506.70961856 27.77947941 513.06773247 0.375 512.9375 C-0.42025085 512.93567719 -1.21550171 512.93385437 -2.03485107 512.93197632 C-13.92091659 512.88610321 -25.39959879 512.42718917 -37 509.625 C-37.72670898 509.45871094 -38.45341797 509.29242188 -39.20214844 509.12109375 C-82.13305212 499.09831468 -120.76514161 471.48226709 -144.45361328 434.34619141 C-161.14107502 406.62144756 -170.46015231 375.94905262 -170.375 343.5 C-170.37445618 342.71564575 -170.37391235 341.9312915 -170.37335205 341.12316895 C-170.21987437 292.61685401 -153.186679 247.41232115 -131.5 204.6875 C-120.4771981 182.9430747 -111.33244608 160.56099521 -103.01977539 137.6628418 C-99.33403656 127.59784708 -94.98274839 118.11211065 -90 108.625 C-89.54520264 107.74021973 -89.09040527 106.85543945 -88.62182617 105.94384766 C-80.69785383 90.64546613 -70.89282699 77.1008087 -59 64.625 C-58.46632813 64.02816406 -57.93265625 63.43132813 -57.3828125 62.81640625 C-46.56795222 51.16756421 -29.71049051 40.57598659 -14 37.625 C-12.33341211 37.60879556 -10.66656865 37.60692442 -9 37.625 C-9.02618408 36.68180908 -9.05236816 35.73861816 -9.0793457 34.7668457 C-9.16476922 31.25366855 -9.22734298 27.74160092 -9.2746582 24.2277832 C-9.29974109 22.70970199 -9.3338166 21.19174082 -9.37719727 19.67407227 C-9.43813293 17.48684035 -9.46626895 15.30120961 -9.48828125 13.11328125 C-9.51446533 11.79884033 -9.54064941 10.48439941 -9.56762695 9.13012695 C-8.7376917 4.00523216 -5.53490202 -0.11159077 0 0 Z M-54.10009766 85.5769043 C-68.89145646 104.15735705 -79.67583201 125.23106971 -87.74014282 147.48574829 C-89.60593507 152.62149557 -91.53578856 157.7329733 -93.46875 162.84375 C-93.85150589 163.85653519 -94.23426178 164.86932037 -94.62861633 165.91279602 C-102.2713739 185.97514923 -111.6871834 205.22582182 -121.41894531 224.34326172 C-130.49404376 242.32644964 -138.09661562 261.15011453 -143.5 280.5625 C-143.80115723 281.64354004 -144.10231445 282.72458008 -144.41259766 283.83837891 C-146.28345922 290.68478621 -147.97049083 297.54270192 -149.375 304.5 C-149.53033203 305.2643335 -149.68566406 306.02866699 -149.84570312 306.81616211 C-151.99069976 318.04188937 -152.24022232 329.3078869 -152.29516602 340.70141602 C-152.30663524 342.34636064 -152.32700616 343.99126955 -152.35668945 345.63598633 C-153.06022429 384.85707064 -135.30964077 422.29495732 -108.55053711 450.41113281 C-90.24807361 469.14851183 -67.12935921 482.45895511 -42 489.625 C-40.31245476 490.16652571 -38.62495157 490.70818248 -36.9375 491.25 C-25.92509086 494.45683972 -15.12429834 494.97093194 -3.73828125 494.94067383 C-1.26777584 494.93752267 1.20151733 494.96102514 3.671875 494.98632812 C42.8931446 495.14172434 78.9501024 478.43812963 107 451.625 C107.72058594 450.96757812 108.44117188 450.31015625 109.18359375 449.6328125 C130.51668015 429.47855975 143.09762154 401.7243278 150 373.625 C150.18377197 372.87927734 150.36754395 372.13355469 150.55688477 371.36523438 C152.32307408 363.05813602 152.30367602 354.83514845 152.26074219 346.38378906 C152.25007977 343.89362905 152.26065748 341.40419984 152.2734375 338.9140625 C152.28250738 328.97094192 151.63220392 319.45219702 150 309.625 C149.85933105 308.75020996 149.71866211 307.87541992 149.57373047 306.97412109 C143.80959345 273.00461175 130.13445244 242.27971942 115 211.625 C105.58064207 192.52026889 97.22298148 173.10752416 89.83984375 153.125 C83.69729749 136.54516499 77.2883046 120.76445093 68 105.625 C67.62004883 105.00028809 67.24009766 104.37557617 66.84863281 103.73193359 C62.1999779 96.18483164 56.74808329 89.35644145 51 82.625 C50.34128906 81.8309375 49.68257812 81.036875 49.00390625 80.21875 C38.64876857 68.05094235 23.27972115 56.15044006 6.91113281 54.40185547 C-18.44135931 52.64447933 -38.47850929 66.60783271 -54.10009766 85.5769043 Z " fill="#333433" transform="translate(256,-0.625)"/>
<path d="M0 0 C29.99230742 18.88116762 46.62287184 52.60349799 54.91796875 86.0390625 C60.02060494 108.52940303 57.62303646 133.25723021 45.68945312 153.17382812 C32.58937791 173.71663901 13.39329428 187.05442776 -10.171875 193.2734375 C-33.49482711 196.92293571 -55.70007461 193.0652647 -75.28515625 179.4453125 C-93.67036448 165.61286896 -107.08747158 146.83614881 -110.671875 123.765625 C-112.20356034 111.78719841 -112.18149937 98.99513243 -109.171875 87.2734375 C-108.86099863 85.89344969 -108.55120579 84.51321757 -108.2421875 83.1328125 C-100.92816283 51.81716895 -83.93232512 19.43566186 -56.484375 1.3984375 C-38.613665 -9.48485003 -18.43032214 -10.03226895 0 0 Z M-55.171875 22.2734375 C-56.37263672 23.33498047 -56.37263672 23.33498047 -57.59765625 24.41796875 C-78.6777039 44.1866604 -92.86179109 76.83406993 -94.5859375 105.515625 C-94.85364231 114.13756623 -94.28298672 122.15206153 -91.171875 130.2734375 C-90.81996094 131.25570312 -90.46804687 132.23796875 -90.10546875 133.25 C-87.37908254 140.35839969 -83.84843414 146.28540852 -79.171875 152.2734375 C-78.66140625 152.96050781 -78.1509375 153.64757812 -77.625 154.35546875 C-68.43348164 165.89036926 -53.65365198 174.01428029 -39.171875 176.2734375 C-35.5204629 176.53677682 -31.89392401 176.55391258 -28.234375 176.5234375 C-27.30947266 176.53117188 -26.38457031 176.53890625 -25.43164062 176.546875 C-7.99076786 176.49798678 7.1308701 170.0787542 19.828125 158.2734375 C29.42251807 148.56221773 35.60917252 136.49590383 38.828125 123.2734375 C38.99940918 122.65331787 39.17069336 122.03319824 39.34716797 121.39428711 C44.67515226 97.89976957 33.88979363 71.54310892 22.828125 51.2734375 C22.23902344 50.1803125 21.64992188 49.0871875 21.04296875 47.9609375 C13.14411165 33.85455033 2.46688101 20.64144925 -12.171875 13.2734375 C-12.80351562 12.93441406 -13.43515625 12.59539062 -14.0859375 12.24609375 C-28.72529339 5.48707199 -44.10490498 12.30337071 -55.171875 22.2734375 Z " fill="#343433" transform="translate(283.171875,238.7265625)"/>
<path d="M0 0 C12.77869389 4.84946837 20.77487263 26.19425728 26.12109375 37.953125 C33.90338845 55.84275977 38.87494424 79.80212746 31.859375 98.63671875 C30.23469765 102.33005436 29.58063986 103.55170884 26.171875 105.82421875 C19.30864232 106.47785996 19.30864232 106.47785996 15.671875 104.38671875 C13.4554725 100.60036447 13.57543963 97.11023106 14.171875 92.82421875 C14.501875 91.9115625 14.831875 90.99890625 15.171875 90.05859375 C20.55595493 72.64446023 13.09583818 51.18748955 5.1328125 35.8125 C1.76254604 29.53178296 -1.70674504 23.72108681 -6.328125 18.26171875 C-8.74730732 15.36742647 -9.86799193 13.71031324 -11.140625 10.07421875 C-10.53340061 3.75908513 -6.68352579 -0.56533583 0 0 Z " fill="#FDFCFB" transform="translate(278.828125,270.17578125)"/>
<path d="M0 0 C3.06458538 2.04305692 3.82153128 3.44079802 4.9375 6.9375 C5.01221891 10.59872681 4.21363944 12.1304674 2 15 C-1.20841035 16.60420518 -4.5193987 16.47462745 -8 16 C-10.5 14.5 -10.5 14.5 -12 12 C-12.791013 7.97901723 -12.62153384 5.03588973 -10.5 1.5 C-6.97359191 -0.61584485 -4.01178761 -0.80730018 0 0 Z " fill="#FCFBF8" transform="translate(260,259)"/>
</svg>
